<?xml version="1.0" standalone="no"?>
<!DOCTYPE svg PUBLIC "-//W3C//DTD SVG 20010904//EN"
 "http://www.w3.org/TR/2001/REC-SVG-20010904/DTD/svg10.dtd">
<svg version="1.0" xmlns="http://www.w3.org/2000/svg"
 width="558.000000pt" height="558.000000pt" viewBox="0 0 558.000000 558.000000"
 preserveAspectRatio="xMidYMid meet">
<metadata>
Created by potrace 1.11, written by Peter Selinger 2001-2013
</metadata>
<g transform="translate(0.000000,558.000000) scale(0.100000,-0.100000)"
fill="#000000" stroke="none">
<path d="M761 4988 c-145 -312 -274 -643 -417 -1073 -75 -225 -146 -460 -158
-518 -3 -12 -16 -72 -30 -132 -38 -172 -56 -302 -45 -332 11 -31 132 -70 209
-69 41 1 45 3 48 29 4 34 15 34 32 1 14 -25 42 -46 67 -50 12 -2 224 212 333
336 36 41 83 95 106 120 22 25 62 72 90 105 27 32 56 66 64 75 8 9 31 36 50
60 19 24 58 71 85 104 58 70 143 177 314 396 66 85 124 160 129 165 4 6 53 69
107 140 55 72 105 137 112 145 20 24 202 271 233 316 l29 41 -33 49 c-48 70
-115 144 -131 144 -8 0 -58 -61 -112 -136 -490 -682 -945 -1254 -1331 -1672
-52 -56 -96 -101 -98 -100 -4 4 90 415 115 503 131 465 234 743 404 1095 39
80 74 153 78 162 8 17 4 23 -71 89 -47 42 -116 89 -130 89 -6 0 -28 -37 -49
-82z m1267 -209 c-13 -17 -30 -41 -38 -53 -30 -44 -144 -201 -150 -206 -3 -3
-45 -58 -93 -122 -48 -64 -93 -120 -100 -124 -6 -4 -3 4 9 17 11 13 29 38 39
54 17 28 243 334 255 345 3 3 25 31 49 63 24 31 45 57 48 57 2 0 -6 -14 -19
-31z m-75 -21 c-5 -7 -38 -52 -72 -100 -35 -49 -65 -88 -68 -88 -5 0 20 37 90
133 27 37 52 67 55 67 2 0 0 -6 -5 -12z m-1609 -1072 c-15 -53 -29 -95 -31
-93 -2 3 8 48 23 101 15 52 29 94 32 92 2 -3 -9 -48 -24 -100z m-45 -160 c-6
-26 -13 -45 -16 -43 -2 3 1 26 8 51 6 26 13 45 16 43 2 -3 -1 -26 -8 -51z
m-56 -69 c-10 -37 -21 -67 -24 -67 -4 0 2 32 14 70 25 88 33 86 10 -3z m34 -9
c-3 -8 -6 -5 -6 6 -1 11 2 17 5 13 3 -3 4 -12 1 -19z m-76 -154 c-11 -38 -20
-63 -20 -56 -1 21 32 147 36 136 2 -6 -5 -42 -16 -80z m-22 -111 c-15 -56 -20
-63 -13 -18 6 39 11 55 19 55 2 0 -1 -17 -6 -37z m-22 -105 c-3 -8 -6 -5 -6 6
-1 11 2 17 5 13 3 -3 4 -12 1 -19z"/>
<path d="M2257 4405 c-170 -58 -342 -207 -401 -349 -9 -21 -16 -61 -16 -89 0
-42 -5 -56 -34 -91 -59 -72 -146 -213 -191 -309 -66 -142 -87 -212 -90 -303
-3 -73 0 -87 27 -144 61 -126 232 -261 337 -265 130 -5 292 102 466 307 l40
47 85 5 c85 5 169 25 223 53 33 17 36 15 43 -23 19 -107 183 -304 299 -359 49
-23 73 -29 130 -28 39 0 81 2 95 5 149 33 294 104 456 225 39 29 73 53 76 53
2 0 5 -18 6 -41 2 -48 42 -127 87 -171 46 -47 124 -80 171 -72 121 18 269 140
438 359 38 50 73 94 77 99 4 5 -6 -33 -22 -85 -43 -131 -45 -165 -18 -228 26
-61 95 -127 148 -140 88 -24 209 17 334 112 151 115 338 325 478 537 84 127
83 123 61 173 -19 43 -92 117 -116 117 -7 0 -39 -39 -71 -87 -189 -285 -380
-480 -516 -528 -38 -14 -79 -20 -79 -12 0 29 62 196 242 652 72 182 131 343
130 358 -3 109 -74 224 -125 204 -15 -6 -86 -110 -229 -337 -372 -590 -592
-861 -731 -901 -28 -8 -29 -7 -22 19 18 72 125 309 317 702 72 146 134 275
139 287 12 32 -41 131 -102 188 -27 25 -55 45 -61 43 -6 -2 -21 -33 -34 -68
-13 -36 -29 -74 -34 -85 -5 -11 -56 -122 -113 -247 -95 -207 -111 -235 -182
-320 -155 -186 -288 -321 -422 -429 -141 -114 -316 -191 -430 -191 -76 0 -108
16 -129 65 -74 184 109 626 375 901 89 92 176 150 242 161 56 10 72 -6 67 -65
-6 -54 -35 -119 -117 -260 -33 -58 -61 -114 -61 -126 0 -30 54 -100 91 -120
25 -13 36 -14 53 -4 50 28 152 204 180 313 34 130 -12 286 -113 387 -148 148
-285 116 -522 -120 -145 -145 -255 -301 -350 -495 -45 -93 -193 -222 -286
-250 -21 -6 -20 -1 16 77 21 46 51 121 67 168 24 75 28 100 28 220 1 149 -8
189 -70 315 -58 117 -155 205 -232 210 -21 1 -68 -8 -105 -20z m54 -20 c-18
-8 -38 -15 -43 -15 -5 0 -53 -25 -105 -55 -53 -30 -98 -55 -101 -55 -10 0 95
78 128 95 43 23 108 44 135 44 13 0 9 -5 -14 -14z m-161 -106 c-19 -12 -48
-31 -65 -42 -24 -16 -27 -16 -13 -2 18 20 88 63 103 64 6 0 -6 -9 -25 -20z
m354 -89 c17 -17 9 -128 -18 -232 -40 -159 -130 -348 -238 -505 -33 -49 -45
-51 -121 -23 -81 31 -131 93 -141 179 -4 42 -4 42 94 141 94 94 99 100 90 129
-4 17 -16 43 -26 59 -16 29 -16 31 4 60 28 39 126 128 177 160 68 44 152 59
179 32z m1705 -197 c-71 -167 -102 -230 -106 -213 -3 14 142 330 151 330 2 0
-18 -53 -45 -117z m-1669 -6 c-13 -71 -50 -201 -55 -195 -2 1 10 55 26 118 16
63 29 126 30 140 0 14 3 19 6 12 3 -8 0 -41 -7 -75z m2468 -30 c-23 -59 -43
-105 -45 -103 -2 2 15 51 38 110 22 59 43 106 45 104 2 -2 -15 -52 -38 -111z
m-1223 -94 c-17 -45 -82 -163 -89 -163 -2 0 18 43 45 95 27 53 49 103 49 112
0 9 3 13 6 10 4 -4 -1 -28 -11 -54z m1166 -46 c-10 -9 -11 -8 -5 6 3 10 9 15
12 12 3 -3 0 -11 -7 -18z m-2841 10 c0 -1 -27 -29 -60 -62 -33 -33 -60 -56
-60 -51 0 4 26 32 58 62 55 51 62 57 62 51z m335 -78 c-15 -35 -31 -68 -36
-74 -5 -5 5 25 23 67 17 43 33 76 35 74 2 -2 -8 -32 -22 -67z m1183 -109 c-12
-16 -26 -30 -30 -30 -5 0 1 14 14 30 12 17 26 30 30 30 5 0 -1 -13 -14 -30z
m-1258 -46 c-39 -72 -106 -170 -122 -180 -7 -5 4 14 24 41 33 46 83 128 110
183 6 12 13 20 15 18 2 -2 -10 -30 -27 -62z m-477 -17 c-4 -7 -24 -37 -44 -67
-45 -67 -128 -237 -130 -265 0 -11 -5 -29 -10 -40 -16 -36 -1 45 19 105 37
105 145 295 163 284 5 -3 6 -11 2 -17z m119 -197 c19 -19 49 -47 68 -62 l35
-27 -48 -46 c-96 -90 -196 -143 -286 -152 l-54 -6 7 57 c7 66 14 100 28 141
19 53 78 169 111 217 l31 47 37 -67 c21 -37 53 -83 71 -102z m2570 38 c-56
-87 -188 -253 -228 -288 -15 -14 -4 4 26 39 71 82 130 158 191 249 27 39 52
72 54 72 3 0 -17 -33 -43 -72z m-2834 -23 c-12 -24 -23 -43 -26 -41 -4 5 36
86 43 86 3 0 -5 -20 -17 -45z m2017 -7 c-137 -145 -248 -234 -365 -292 -78
-39 -172 -69 -197 -63 -10 2 1 8 26 12 107 20 329 159 482 304 92 88 115 104
54 39z m-888 -40 c-3 -7 -5 -2 -5 12 0 14 2 19 5 13 2 -7 2 -19 0 -25z m-1169
-56 c-6 -24 -13 -41 -15 -38 -2 2 1 23 7 46 6 23 13 40 15 38 2 -2 -1 -23 -7
-46z m2675 13 c-3 -9 -8 -14 -10 -11 -3 3 -2 9 2 15 9 16 15 13 8 -4z m-2253
-28 c0 -2 -17 -19 -37 -38 l-38 -34 34 38 c33 34 41 42 41 34z m2219 -183
c-32 -36 -164 -141 -197 -158 -15 -7 -38 -16 -52 -20 -14 -3 -6 3 17 13 63 29
195 132 189 147 -3 8 0 11 8 8 7 -3 21 4 31 16 10 11 20 20 23 20 3 0 -5 -12
-19 -26z"/>
<path d="M194 2275 c-62 -26 -58 16 -58 -726 -1 -512 2 -681 11 -690 13 -13
606 -22 678 -10 l40 6 0 152 c0 194 4 188 -142 192 -60 2 -129 4 -155 5 -26 1
-51 5 -55 9 -4 4 -6 94 -4 200 1 105 2 330 2 499 0 324 -4 355 -48 372 -29 11
-237 5 -269 -9z m195 -15 c-8 -5 -27 -11 -42 -14 -15 -2 -31 -7 -37 -11 -5 -3
-10 -4 -10 -1 0 11 56 35 80 35 20 0 22 -1 9 -9z m98 -74 c-6 -16 -54 -44 -98
-56 -20 -6 -29 -4 -33 5 -3 9 0 12 8 9 7 -3 19 3 27 12 12 16 12 17 -3 11 -22
-8 -23 0 -3 20 10 10 28 14 50 11 18 -2 33 -1 33 2 -2 18 3 23 13 13 7 -7 9
-18 6 -27z m-297 -1 c-7 -8 -17 -15 -22 -15 -6 0 -5 7 2 15 7 8 17 15 22 15 6
0 5 -7 -2 -15z m59 -17 c-46 -28 -79 -40 -79 -28 0 6 11 15 25 20 14 5 28 16
31 23 3 9 14 12 30 9 l25 -5 -32 -19z m241 -28 c0 -6 -7 -13 -15 -16 -8 -4
-13 -9 -10 -14 2 -4 -7 -5 -20 -2 -31 6 -31 8 3 26 33 18 42 19 42 6z m-215
-49 c-3 -6 -14 -11 -23 -11 -15 1 -15 2 2 15 21 16 32 13 21 -4z m140 -50
c-14 -12 -115 -44 -121 -38 -3 3 19 14 48 26 57 21 88 27 73 12z m61 -26 c-11
-8 -25 -15 -32 -15 -7 0 -21 -2 -31 -5 -10 -3 0 3 22 14 48 23 68 26 41 6z
m-11 -203 c-16 -9 -52 -24 -80 -34 -27 -10 -51 -23 -53 -28 -4 -12 -32 -13
-32 -2 0 29 105 80 165 81 l30 0 -30 -17z m-155 -27 c0 -7 -58 -35 -72 -35 -7
1 3 9 22 20 35 19 50 24 50 15z m166 -41 c-30 -21 -45 -16 -16 6 14 10 27 16
30 13 3 -2 -4 -11 -14 -19z m-221 -154 c-3 -5 -12 -10 -18 -10 -7 0 -6 4 3 10
19 12 23 12 15 0z m155 -114 c0 -3 -4 -8 -10 -11 -5 -3 -10 -1 -10 4 0 6 5 11
10 11 6 0 10 -2 10 -4z m-220 -10 c0 -3 -4 -8 -10 -11 -5 -3 -10 -1 -10 4 0 6
5 11 10 11 6 0 10 -2 10 -4z m284 -35 c-19 -17 -131 -74 -213 -107 -125 -52
-119 -50 -101 -32 8 8 45 28 83 43 37 15 72 34 78 42 7 7 19 11 29 8 9 -3 24
3 34 14 10 11 31 23 47 26 16 4 32 11 35 16 3 6 9 8 12 4 3 -3 1 -9 -4 -14z
m-165 -5 c-9 -9 -143 -55 -148 -50 -10 10 20 27 71 39 56 14 84 18 77 11z
m160 -92 c-7 -8 -26 -22 -43 -30 l-31 -15 33 30 c34 33 65 44 41 15z m-85 -32
c-11 -10 -19 -23 -16 -30 2 -8 -2 -10 -13 -6 -14 6 -13 9 6 30 12 13 27 24 33
24 6 -1 2 -8 -10 -18z m86 -2 c0 -5 -5 -10 -11 -10 -5 0 -7 5 -4 10 3 6 8 10
11 10 2 0 4 -4 4 -10z m-271 -59 c-13 -11 -26 -17 -29 -14 -6 6 30 33 43 33 5
0 -1 -9 -14 -19z m106 9 c-9 -15 -65 -42 -65 -31 0 11 41 40 58 40 7 1 10 -4
7 -9z m170 -20 c-10 -11 -24 -20 -32 -20 -7 0 -13 -5 -13 -11 0 -5 5 -7 10 -4
6 3 10 1 10 -4 0 -14 -11 -13 -32 3 -26 19 -23 25 25 45 49 21 57 19 32 -9z
m-104 -70 c-26 -23 -46 -25 -57 -8 -4 7 -3 8 4 4 6 -4 24 0 39 8 38 21 43 19
14 -4z m254 5 c-51 -19 -67 -18 -35 0 14 8 36 14 50 14 20 0 17 -3 -15 -14z
m129 0 c-5 -13 -2 -13 30 0 21 9 36 11 36 5 0 -5 -8 -10 -19 -10 -10 0 -24 -7
-31 -15 -6 -8 -22 -17 -33 -21 -12 -4 -28 -14 -34 -23 -12 -14 -12 -14 -6 4 3
11 11 23 17 27 7 5 5 8 -5 8 -9 0 -19 -3 -22 -7 -7 -6 -67 -11 -67 -5 0 2 24
14 53 27 61 28 89 32 81 10z m-504 -40 c0 -2 -9 -9 -19 -15 -14 -7 -22 -7 -27
2 -4 6 -3 8 2 5 6 -3 16 -2 24 4 17 10 20 11 20 4z m540 -9 c0 -3 -4 -8 -10
-11 -5 -3 -10 -1 -10 4 0 6 5 11 10 11 6 0 10 -2 10 -4z m40 -17 c-6 -11 -17
-22 -25 -25 -7 -3 -16 -17 -19 -30 -4 -16 -11 -22 -19 -17 -13 8 -47 5 -62 -6
-33 -25 -165 -91 -165 -83 0 6 28 24 63 41 129 64 167 87 160 96 -4 4 -3 6 2
3 6 -4 24 5 40 18 37 29 39 29 25 3z m-363 -15 c-16 -8 -34 -13 -40 -11 -7 3
-1 9 13 15 38 16 59 13 27 -4z m278 6 c-3 -5 -12 -10 -18 -10 -7 0 -6 4 3 10
19 12 23 12 15 0z m-523 -52 c-7 -7 -12 -8 -12 -2 0 14 12 26 19 19 2 -3 -1
-11 -7 -17z m-47 -27 c-3 -6 -11 -11 -17 -11 -6 0 -6 6 2 15 14 17 26 13 15
-4z m385 4 c0 -2 -18 -14 -40 -25 -22 -11 -40 -16 -40 -11 0 5 17 16 38 24 44
19 42 18 42 12z m193 -12 c-7 -2 -13 -11 -13 -18 0 -18 -59 -30 -73 -15 -9 8
-8 10 6 5 10 -4 17 -2 17 5 0 6 4 9 9 5 6 -3 16 1 23 9 7 9 20 15 28 15 10 0
11 -2 3 -6z m-549 -37 c-7 -18 -32 -28 -39 -15 -5 7 15 20 42 28 1 1 0 -5 -3
-13z m192 -1 c-11 -8 -25 -15 -30 -15 -6 0 -2 7 8 15 11 8 25 15 30 15 6 0 2
-7 -8 -15z m-72 -10 c-10 -8 -26 -14 -34 -14 -9 0 -4 6 10 14 33 19 49 19 24
0z m521 5 c-3 -5 -10 -10 -16 -10 -5 0 -9 5 -9 10 0 6 7 10 16 10 8 0 12 -4 9
-10z m-149 -36 c-3 -9 -6 -20 -6 -25 0 -5 -6 -4 -13 3 -10 9 -11 16 -3 25 16
18 29 16 22 -3z m-242 -9 c-27 -20 -51 -20 -34 0 7 8 22 15 33 15 20 0 20 0 1
-15z m301 -21 c-16 -13 -33 -24 -38 -24 -14 0 24 49 41 53 29 6 28 -4 -3 -29z
m-555 11 c-7 -8 -20 -15 -29 -15 -13 1 -13 3 3 15 26 19 42 19 26 0z m440 -5
c-8 -5 -17 -7 -19 -4 -3 3 1 9 9 14 8 5 17 7 19 4 3 -3 -1 -9 -9 -14z m-302
-5 c-10 -10 -68 -24 -68 -16 0 4 15 11 33 17 32 9 45 9 35 -1z m465 -10 c-3
-9 -8 -14 -10 -11 -3 3 -2 9 2 15 9 16 15 13 8 -4z"/>
<path d="M1379 1995 c-73 -20 -129 -49 -194 -98 -102 -77 -165 -176 -210 -332
-24 -81 -26 -100 -21 -200 10 -180 24 -227 94 -314 59 -72 70 -80 172 -134 97
-52 163 -65 313 -62 78 1 102 6 155 30 34 15 65 26 68 23 2 -3 7 -16 9 -28 7
-39 22 -43 145 -43 113 0 189 13 201 34 6 12 10 74 9 147 -4 378 -3 574 4 728
9 183 6 208 -26 225 -22 12 -267 24 -304 15 -14 -4 -26 -16 -30 -31 -8 -31
-13 -31 -72 -1 -107 54 -214 68 -313 41z m451 -29 c0 -9 -30 -14 -35 -6 -4 6
3 10 14 10 12 0 21 -2 21 -4z m198 -5 c10 -6 8 -10 -10 -14 -40 -10 -92 -24
-118 -32 -44 -13 -8 14 46 35 56 22 64 23 82 11z m67 -20 c-7 -12 -88 -31
-122 -30 -20 1 -8 8 42 24 67 21 91 23 80 6z m-261 -12 c-21 -23 -54 -31 -54
-13 0 14 30 31 57 31 10 0 9 -4 -3 -18z m-407 -11 c-2 -8 -39 -32 -82 -53 -42
-22 -91 -52 -107 -67 -32 -29 -48 -35 -48 -17 0 19 -30 42 -43 32 -7 -6 -21
-13 -32 -16 -30 -10 53 59 97 80 20 10 34 21 32 24 -2 4 5 5 16 2 11 -3 20 -7
20 -9 0 -1 -18 -13 -40 -25 -51 -29 -52 -45 -2 -23 20 9 45 18 54 21 10 3 14
11 11 21 -4 8 -2 13 3 10 5 -4 34 4 64 17 57 24 66 25 57 3z m318 -34 c0 -10
-9 -27 -20 -37 -20 -18 -20 -18 5 -12 25 6 25 6 -4 -19 -30 -25 -49 -26 -40
-3 2 7 -4 22 -16 32 -25 22 -26 35 -2 28 10 -2 26 5 37 17 22 24 40 21 40 -6z
m365 22 c0 -2 -7 -7 -16 -10 -8 -3 -12 -2 -9 4 6 10 25 14 25 6z m-100 -25 c0
-8 -88 -32 -108 -30 -7 1 88 37 101 38 4 1 7 -3 7 -8z m-467 -55 c-10 -14 -27
-24 -38 -24 -11 1 -31 -2 -45 -6 l-25 -7 22 19 c12 11 19 23 15 27 -4 5 -2 5
5 2 6 -4 22 -3 35 2 41 17 51 13 31 -13z m90 4 c-3 -12 -8 -19 -11 -16 -5 6 5
36 12 36 2 0 2 -9 -1 -20z m402 0 c-3 -5 -14 -10 -23 -10 -15 0 -15 2 -2 10
20 13 33 13 25 0z m-425 -9 c0 -5 -14 -14 -30 -21 -17 -7 -39 -23 -48 -35 -13
-17 -27 -22 -55 -20 -48 3 -61 15 -17 15 23 0 44 10 71 35 36 32 79 47 79 26z
m200 -15 c0 -2 -7 -6 -15 -10 -8 -3 -15 -1 -15 4 0 6 7 10 15 10 8 0 15 -2 15
-4z m-170 -10 c0 -3 -4 -8 -10 -11 -5 -3 -10 -1 -10 4 0 6 5 11 10 11 6 0 10
-2 10 -4z m460 -8 c0 -16 -31 -48 -47 -48 -7 0 -13 -4 -13 -10 0 -5 -7 -10
-16 -10 -10 0 -14 6 -11 14 3 8 -1 20 -9 27 -12 10 -12 13 3 25 22 17 93 18
93 2z m-810 -13 c0 -2 -7 -5 -15 -9 -9 -3 -15 0 -15 9 0 9 6 12 15 9 8 -4 15
-7 15 -9z m305 -5 c-3 -5 2 -10 12 -10 15 0 16 -2 3 -10 -22 -14 -29 -12 -25
8 5 23 4 22 11 22 3 0 2 -4 -1 -10z m365 -5 c-13 -16 -40 -20 -40 -7 0 14 12
22 33 22 16 0 17 -3 7 -15z m-395 -5 c-3 -5 -11 -10 -16 -10 -6 0 -7 5 -4 10
3 6 11 10 16 10 6 0 7 -4 4 -10z m-384 -14 c5 3 9 1 9 -4 0 -6 -13 -15 -30
-21 -16 -5 -30 -8 -30 -5 0 10 35 39 38 32 2 -5 8 -6 13 -2z m529 9 c0 -7 -57
-35 -72 -35 -7 0 1 9 17 20 28 19 55 26 55 15z m-620 -15 c-20 -13 -33 -13
-25 0 3 6 14 10 23 10 15 0 15 -2 2 -10z m660 -10 c-11 -21 -40 -40 -61 -40
-7 0 -4 7 7 16 18 14 18 15 -6 9 -23 -6 -23 -5 5 14 17 12 38 21 48 21 15 0
16 -4 7 -20z m110 15 c0 -2 -18 -14 -40 -25 -47 -24 -76 -16 -34 9 26 16 74
26 74 16z m237 -10 c0 -8 -9 -15 -20 -15 -16 0 -17 3 -7 15 7 8 16 15 20 15 3
0 7 -7 7 -15z m-207 -5 c0 -5 -8 -10 -17 -10 -15 0 -16 2 -3 10 19 12 20 12
20 0z m-800 -25 c-19 -14 -36 -25 -39 -25 -10 0 53 49 63 50 6 0 -5 -11 -24
-25z m171 9 c-47 -33 -151 -83 -156 -75 -5 10 141 90 165 91 9 0 6 -6 -9 -16z
m-76 -4 c-3 -5 -12 -10 -18 -10 -7 0 -6 4 3 10 19 12 23 12 15 0z m179 -1 c-2
-4 3 -12 13 -18 16 -8 15 -11 -7 -29 -14 -12 -36 -24 -50 -27 -14 -4 -56 -22
-95 -42 -69 -35 -70 -35 -45 -8 14 15 55 42 93 61 70 36 82 45 45 37 l-23 -5
24 19 c23 19 55 27 45 12z m245 -6 c64 -20 124 -75 154 -139 30 -66 30 -198 0
-262 -32 -68 -87 -119 -145 -137 -67 -20 -80 -19 -131 5 -76 37 -123 91 -151
172 -40 119 -8 264 73 327 67 52 118 61 200 34z m414 -2 c6 -6 -5 -8 -29 -7
-74 4 -129 -20 -136 -60 -2 -14 2 -18 17 -16 27 5 14 -7 -14 -13 -12 -2 -19 0
-16 5 3 4 -1 11 -7 14 -10 5 -10 7 0 12 6 3 12 12 12 19 0 8 8 19 18 24 13 8
9 9 -18 5 -19 -4 -46 -13 -58 -21 -22 -14 -43 -11 -29 3 16 16 112 42 118 32
4 -6 17 -4 35 6 30 17 89 15 107 -3z m-33 -41 c0 -5 -17 -14 -37 -19 -43 -12
-59 -14 -50 -5 4 5 72 31 85 34 1 0 2 -4 2 -10z m-905 -39 c-15 -13 -75 -31
-75 -22 0 4 10 13 23 19 27 13 65 16 52 3z m960 -5 c-19 -14 -17 -15 15 -6 29
8 32 8 20 -4 -34 -31 -140 -58 -140 -36 0 6 -14 4 -31 -5 -42 -22 -48 -12 -7
12 56 33 95 48 129 51 32 3 33 2 14 -12z m-135 -11 c0 -10 -84 -65 -99 -65
-20 1 20 35 64 55 35 17 35 17 35 10z m175 -44 c-3 -5 -21 -15 -40 -21 -19 -6
-35 -15 -35 -18 0 -4 -11 -7 -25 -7 -41 0 -29 12 33 33 66 24 75 25 67 13z
m-935 -35 c0 -2 -7 -6 -15 -10 -8 -3 -15 -1 -15 4 0 6 7 10 15 10 8 0 15 -2
15 -4z m940 -18 c0 -29 -19 -58 -38 -58 -13 0 -12 4 8 20 32 25 18 25 -49 0
-30 -11 -56 -18 -58 -16 -2 2 17 14 41 27 25 13 43 26 40 30 -2 4 6 5 18 1 12
-3 19 -1 15 5 -3 5 0 10 8 10 8 0 15 -9 15 -19z m-1000 -8 c0 -5 -5 -10 -11
-10 -5 0 -7 5 -4 10 3 6 8 10 11 10 2 0 4 -4 4 -10z m190 -60 c-8 -5 -19 -10
-25 -10 -5 0 -3 5 5 10 8 5 20 10 25 10 6 0 3 -5 -5 -10z m801 -13 c-19 -23
-100 -60 -131 -60 -17 0 -30 -4 -30 -9 0 -4 -4 -8 -10 -8 -24 0 5 29 35 34 19
4 54 18 77 31 48 28 77 33 59 12z m-897 -32 c-10 -8 -23 -14 -29 -14 -5 0 -1
6 9 14 11 8 24 15 30 15 5 0 1 -7 -10 -15z m696 0 c-7 -8 -20 -15 -29 -15 -11
1 -8 5 9 15 32 18 35 18 20 0z m-667 -20 c-33 -23 -175 -87 -181 -81 -2 3 35
25 84 49 90 45 137 60 97 32z m86 -36 c-16 -10 -23 -4 -14 10 3 6 11 8 17 5 6
-4 5 -9 -3 -15z m-72 -23 c-27 -22 -152 -88 -189 -100 -10 -3 -18 -2 -18 2 0
5 35 25 78 46 42 20 93 45 112 56 47 24 50 24 17 -4z m869 -15 c-6 -9 -111
-61 -125 -61 -4 0 -8 6 -8 14 0 8 5 12 11 10 17 -6 39 12 31 26 -6 9 -9 9 -16
-1 -4 -7 -11 -10 -15 -6 -14 14 30 38 63 33 23 -3 33 0 38 12 6 16 7 16 16 -1
6 -9 8 -21 5 -26z m-217 9 c17 0 -36 -35 -76 -51 -31 -12 -30 5 2 19 31 14 33
32 3 24 -15 -4 -19 -2 -13 7 5 8 18 11 37 7 17 -3 38 -6 47 -6z m50 -56 c-6
-8 -17 -14 -23 -14 -6 0 -3 5 7 11 9 6 14 15 11 21 -4 7 -2 8 5 4 9 -6 9 -11
0 -22z m-889 7 c0 -5 -9 -11 -21 -14 -16 -4 -18 -3 -8 9 13 16 29 19 29 5z
m285 0 c-6 -4 -35 -22 -65 -38 -30 -17 -76 -44 -101 -61 -50 -34 -65 -38 -89
-21 -13 9 -12 10 3 5 11 -3 47 12 95 41 42 26 91 55 107 65 31 18 67 25 50 9z
m769 -5 c-6 -15 -61 -32 -71 -22 -3 3 10 12 28 20 44 19 50 19 43 2z m-933
-20 c-14 -17 -132 -78 -138 -72 -5 5 128 86 141 86 5 0 3 -6 -3 -14z m724 -25
c-3 -6 -16 -11 -28 -11 -21 1 -21 1 3 15 27 14 36 13 25 -4z m141 -48 c-15
-15 -156 -60 -145 -47 6 8 39 23 73 33 67 22 83 25 72 14z m-697 -6 c-2 -1
-13 -9 -24 -17 -19 -14 -19 -14 -6 3 7 9 18 17 24 17 6 0 8 -1 6 -3z m63 -17
c-40 -24 -149 -80 -157 -80 -21 0 19 27 88 61 86 42 123 52 69 19z m248 2 c0
-5 -17 -17 -37 -28 -21 -10 -40 -21 -43 -25 -3 -3 -30 -15 -60 -28 -30 -13
-101 -48 -157 -78 -57 -30 -103 -50 -103 -44 0 6 57 38 128 73 70 34 156 79
192 100 68 39 80 44 80 30z m460 2 c0 -3 -13 -10 -30 -15 -16 -6 -28 -15 -25
-19 3 -4 -5 -6 -17 -2 -20 5 -18 7 17 23 44 19 55 22 55 13z m-840 -24 c-8 -6
-24 -15 -35 -21 -16 -8 -15 -6 4 10 13 12 28 21 35 21 6 0 4 -5 -4 -10z m499
-11 c-16 -10 -23 -4 -14 10 3 6 11 8 17 5 6 -4 5 -9 -3 -15z m-63 -4 c-30 -23
-173 -95 -188 -95 -16 0 29 28 120 75 69 36 101 45 68 20z m-12 -50 c-4 -8
-11 -15 -16 -15 -6 0 -5 6 2 15 7 8 14 15 16 15 2 0 1 -7 -2 -15z m-543 -28
c-10 -9 -11 -8 -5 6 3 10 9 15 12 12 3 -3 0 -11 -7 -18z m486 -2 c-4 -8 -11
-15 -17 -15 -6 0 -6 7 2 20 14 22 24 19 15 -5z m-314 -4 c-30 -28 -132 -79
-113 -56 15 18 109 75 124 75 6 0 1 -9 -11 -19z m124 -42 c-32 -18 -92 -41
-82 -31 15 16 68 42 85 42 12 -1 11 -3 -3 -11z m253 -13 c0 -2 -7 -7 -16 -10
-8 -3 -12 -2 -9 4 6 10 25 14 25 6z m-90 -21 c-14 -8 -29 -14 -35 -14 -5 0 1
6 15 14 14 8 30 14 35 14 6 0 -1 -6 -15 -14z m478 -8 c-16 -6 -28 -14 -28 -19
0 -4 -9 -8 -20 -8 -10 0 -39 -11 -64 -25 -42 -24 -92 -37 -53 -14 9 5 17 16
17 23 0 17 39 34 97 42 27 3 50 8 52 10 2 2 9 4 15 3 6 -1 -1 -6 -16 -12z
m-158 -32 c0 -4 -55 -35 -63 -35 -2 0 -4 6 -4 14 0 8 6 12 13 9 6 -2 15 0 19
6 6 11 35 16 35 6z"/>
<path d="M5071 1962 c-33 -16 -38 -26 -114 -242 -43 -124 -82 -233 -86 -243
-4 -13 -45 44 -150 213 -79 127 -151 235 -160 239 -9 5 -50 1 -101 -10 -130
-28 -173 -44 -193 -71 l-19 -25 74 -119 c139 -222 256 -419 309 -519 29 -55
63 -120 76 -144 30 -57 29 -65 -8 -158 -53 -132 -119 -326 -119 -348 0 -31 33
-45 133 -58 136 -16 175 -13 202 14 13 14 42 83 69 164 25 77 56 169 68 205
12 36 27 74 34 85 7 11 21 52 30 90 10 39 31 99 47 135 66 146 201 509 241
648 31 109 32 138 7 152 -11 5 -83 10 -163 10 -116 0 -149 -3 -177 -18z m127
-35 c-2 -11 -10 -22 -18 -25 -12 -4 -13 -2 -2 9 20 22 14 28 -15 14 -16 -7
-41 -16 -57 -19 -25 -6 -28 -5 -17 7 6 8 23 18 36 21 14 4 25 10 25 15 0 4 11
6 26 3 18 -3 24 -10 22 -25z m177 17 c-19 -14 -47 -29 -168 -83 -89 -40 -176
-70 -181 -62 -5 7 37 33 55 35 3 1 28 11 55 23 27 12 84 36 127 54 42 17 75
34 73 37 -2 4 10 8 27 9 31 2 31 1 12 -13z m4 -90 c-9 -11 -8 -14 2 -14 24 0
-4 -17 -131 -83 -114 -58 -217 -98 -167 -64 10 6 26 18 35 25 15 12 14 12 -5
7 -13 -4 -23 -2 -23 3 0 15 48 35 74 30 17 -4 26 0 29 12 3 11 19 20 41 24 20
4 34 11 31 15 -2 5 6 11 20 13 36 7 31 -10 -7 -27 -18 -8 -27 -14 -20 -15 20
0 72 29 72 42 0 15 43 55 53 50 4 -2 3 -10 -4 -18z m-814 4 c-11 -7 -56 -29
-100 -50 -76 -36 -78 -37 -48 -10 43 37 112 72 143 72 24 -1 24 -1 5 -12z
m-236 -2 c-2 -2 -15 -9 -29 -15 -24 -11 -24 -11 -6 3 16 13 49 24 35 12z m71
0 c0 -2 -7 -7 -16 -10 -8 -3 -12 -2 -9 4 6 10 25 14 25 6z m-66 -41 c-22 -17
-48 -20 -39 -4 8 12 48 29 54 23 3 -2 -4 -11 -15 -19z m1037 -33 c-5 -10 -16
-23 -23 -29 -22 -18 -187 -85 -199 -81 -8 3 208 123 229 127 1 1 -2 -7 -7 -17z
m-1001 -6 c0 -2 -7 -7 -16 -10 -8 -3 -12 -2 -9 4 6 10 25 14 25 6z m130 -41
c0 -8 -122 -67 -127 -61 -3 3 21 18 53 35 61 30 74 35 74 26z m190 -45 c0 -10
-9 -24 -21 -30 -26 -14 -35 -7 -14 10 22 18 18 33 -5 20 -11 -6 -20 -17 -20
-25 0 -18 -17 -20 -23 -2 -4 12 46 46 71 47 6 0 12 -9 12 -20z m360 0 c-8 -5
-19 -10 -25 -10 -5 0 -3 5 5 10 8 5 20 10 25 10 6 0 3 -5 -5 -10z m-50 -35
c-7 -8 -20 -15 -29 -15 -11 1 -8 5 9 15 32 18 35 18 20 0z m-390 -22 c0 -6
-172 -85 -176 -81 -2 3 24 20 60 39 35 18 63 36 61 39 -2 3 10 5 26 5 16 0 29
-1 29 -2z m691 -17 c-15 -18 -134 -59 -129 -45 2 6 33 21 68 33 36 13 67 24
69 25 2 0 -2 -5 -8 -13z m-227 -37 c-43 -16 -83 -28 -89 -28 -21 0 62 38 98
44 20 4 35 10 32 15 -3 4 5 6 16 3 17 -5 2 -13 -57 -34z m-624 21 c-8 -5 -19
-10 -25 -10 -5 0 -3 5 5 10 8 5 20 10 25 10 6 0 3 -5 -5 -10z m291 -28 c-44
-32 -164 -91 -174 -85 -5 3 9 13 30 23 22 9 57 29 79 43 34 21 61 32 84 35 3
1 -6 -7 -19 -16z m399 -16 c0 -3 -4 -8 -10 -11 -5 -3 -10 -1 -10 4 0 6 5 11
10 11 6 0 10 -2 10 -4z m-354 -24 c-7 -12 -151 -82 -168 -82 -19 0 30 32 102
66 65 31 77 34 66 16z m-256 -67 c-14 -7 -27 -11 -30 -9 -6 7 22 24 40 23 9 0
5 -6 -10 -14z m220 5 c0 -5 -7 -10 -16 -10 -8 0 -12 5 -9 10 3 6 10 10 16 10
5 0 9 -4 9 -10z m54 -76 c3 -8 2 -12 -4 -9 -6 3 -10 10 -10 16 0 14 7 11 14
-7z m-79 -4 c-3 -5 -14 -10 -23 -9 -14 0 -13 2 3 9 27 11 27 11 20 0z m483 -8
c-10 -2 -18 -7 -18 -12 0 -4 -12 -10 -27 -13 -58 -11 -73 -16 -95 -36 -34 -33
-54 -27 -29 8 16 22 37 33 93 49 40 10 78 17 83 13 6 -3 2 -7 -7 -9z m-188
-47 c-15 -18 -36 -19 -46 -3 -4 6 -3 8 2 5 6 -3 16 -2 24 4 23 14 34 11 20 -6z
m175 -25 c-3 -5 -12 -10 -18 -10 -7 0 -6 4 3 10 19 12 23 12 15 0z m-486 -69
c-29 -23 -69 -36 -69 -23 0 6 17 17 38 25 50 21 59 21 31 -2z m-3 -46 c-36
-19 -47 -19 -22 0 11 8 27 15 35 15 9 0 3 -7 -13 -15z m108 -24 c-67 -36 -84
-43 -84 -30 0 11 97 59 120 59 8 0 -8 -13 -36 -29z m-93 -1 c-25 -21 -51 -26
-51 -10 0 5 15 14 33 19 45 13 45 13 18 -9z m254 -20 c-3 -5 -12 -10 -18 -10
-7 0 -6 4 3 10 19 12 23 12 15 0z m-235 -50 c-19 -12 -30 -12 -30 -1 0 10 31
20 40 14 2 -2 -2 -8 -10 -13z m111 -5 c-18 -8 -38 -15 -45 -15 -19 1 38 29 59
29 14 0 10 -4 -14 -14z m-1 -44 c0 -10 -72 -41 -95 -41 -8 0 -15 6 -15 14 0
19 23 33 27 19 3 -8 14 -7 36 2 38 17 47 18 47 6z m22 -47 c-51 -31 -90 -41
-72 -19 7 8 22 15 34 15 11 0 30 7 40 15 11 8 25 15 30 15 6 0 -8 -12 -32 -26z
m114 -40 c-11 -8 -27 -14 -36 -14 -10 0 -38 -11 -64 -25 -26 -14 -54 -25 -62
-25 -8 0 -32 -9 -54 -20 -49 -25 -68 -26 -49 -4 15 18 118 68 126 61 2 -3 27
5 55 18 28 13 56 21 63 19 7 -3 16 0 20 6 4 6 10 8 13 5 4 -4 -2 -13 -12 -21z
m51 20 c-3 -3 -12 -4 -19 -1 -8 3 -5 6 6 6 11 1 17 -2 13 -5z m13 -63 c0 -5
-10 -13 -22 -17 -70 -21 -179 -76 -230 -116 -28 -21 -38 -25 -38 -13 0 21 -7
19 -42 -10 -36 -31 -47 -26 -24 11 19 28 116 76 156 76 14 0 61 18 105 39 86
41 95 44 95 30z m-133 -121 c-14 -11 -28 -20 -32 -20 -10 0 38 39 49 40 5 0
-3 -9 -17 -20z m83 -10 c-20 -13 -33 -13 -25 0 3 6 14 10 23 10 15 0 15 -2 2
-10z m-315 -105 c-39 -32 -58 -32 -22 0 15 14 33 25 40 25 7 0 -1 -11 -18 -25z
m79 11 c-3 -7 -17 -18 -32 -25 -27 -11 -27 -11 3 14 35 29 36 29 29 11z m120
-8 c-11 -28 -230 -169 -259 -168 -18 1 49 49 120 87 39 20 85 49 103 65 36 31
44 34 36 16z m-199 -48 c-3 -5 -11 -10 -16 -10 -6 0 -7 5 -4 10 3 6 11 10 16
10 6 0 7 -4 4 -10z m205 -11 c0 -11 -69 -43 -77 -35 -3 2 12 14 34 25 46 24
43 23 43 10z m-70 -54 c0 -8 -88 -56 -119 -65 -42 -12 -49 5 -8 21 37 15 121
47 125 48 1 1 2 -1 2 -4z m55 -20 c-22 -14 -49 -25 -59 -25 -24 0 -19 5 30 30
56 28 76 24 29 -5z m35 -40 c-7 -8 -16 -12 -21 -9 -5 3 -9 0 -9 -5 0 -6 -4
-11 -10 -11 -14 0 -12 27 3 33 6 3 20 6 31 6 15 1 16 -2 6 -14z"/>
<path d="M2775 1955 c-27 -6 -78 -24 -112 -38 -34 -15 -64 -27 -67 -27 -2 0
-6 9 -9 20 -7 28 -50 42 -137 45 -89 4 -170 -10 -188 -33 -9 -12 -11 -42 -7
-107 2 -49 7 -155 10 -235 3 -80 8 -192 11 -250 2 -58 6 -187 8 -288 3 -127 8
-188 17 -198 10 -13 40 -15 172 -13 150 2 159 3 166 23 5 11 4 36 0 56 -20 88
-33 462 -18 540 8 39 38 95 73 136 29 33 37 37 74 36 23 -1 59 -9 80 -18 58
-25 97 -32 118 -21 38 21 185 140 194 157 28 52 -5 109 -94 160 -108 61 -196
78 -291 55z m-294 -32 c9 -11 10 -14 2 -9 -7 4 -22 2 -33 -4 -25 -13 -26 -2
-2 16 9 7 18 14 18 14 1 0 8 -8 15 -17z m-170 -12 c-8 -5 -20 -7 -28 -4 -21 8
-15 13 15 13 20 0 23 -3 13 -9z m239 5 c0 -2 -7 -6 -15 -10 -8 -3 -15 -1 -15
4 0 6 7 10 15 10 8 0 15 -2 15 -4z m-148 -38 c-7 -7 -12 -8 -12 -2 0 6 3 14 7
17 3 4 9 5 12 2 2 -3 -1 -11 -7 -17z m16 -24 c4 -3 -43 -29 -102 -56 -31 -15
-36 -15 -26 -3 9 11 9 15 1 15 -7 0 -9 5 -5 12 6 9 9 9 12 0 2 -8 15 0 32 18
24 25 34 30 57 24 15 -4 30 -8 31 -10z m137 -7 c9 -10 24 -17 33 -17 27 0 62
12 58 19 -2 3 9 6 25 6 16 1 29 -2 29 -6 0 -8 -17 -14 -70 -24 -19 -4 -55 -18
-80 -32 l-45 -26 25 27 25 28 -55 -23 c-30 -12 -72 -27 -93 -33 -21 -7 -34
-16 -30 -21 5 -4 2 -5 -6 0 -12 7 -11 10 4 21 10 8 16 16 13 19 -3 3 -18 -5
-34 -18 -46 -38 -74 -51 -74 -33 0 8 26 29 57 48 74 43 91 49 98 38 7 -12 26
-13 23 -2 -1 4 4 16 11 28 16 25 61 25 86 1z m218 10 c3 -8 -3 -14 -15 -14
-16 -2 -17 1 -8 13 15 17 17 17 23 1z m218 -18 c-18 -11 -35 -18 -38 -15 -5 5
46 35 62 36 6 0 -5 -9 -24 -21z m89 17 c0 -2 -7 -7 -16 -10 -8 -3 -12 -2 -9 4
6 10 25 14 25 6z m-144 -76 c-55 -27 -101 -48 -103 -46 -6 6 40 33 97 56 30
13 59 27 65 32 5 4 16 8 25 7 8 0 -30 -22 -84 -49z m197 33 c7 -7 -41 -43 -57
-43 -5 0 1 11 14 25 25 26 32 29 43 18z m-665 -68 c-9 -21 -14 -23 -26 -12
-13 10 -14 9 -7 -2 5 -8 4 -12 -1 -9 -5 3 -18 8 -29 13 -17 6 -14 9 20 20 56
18 56 18 43 -10z m537 -1 c-91 -57 -185 -100 -185 -84 0 10 197 110 215 110 6
-1 -8 -12 -30 -26z m-429 -8 c-8 -12 -19 -20 -25 -18 -7 1 -29 -7 -51 -18 -22
-11 -40 -17 -40 -14 0 14 52 54 62 48 7 -5 9 -2 6 7 -4 10 3 14 28 15 33 1 34
0 20 -20z m-254 -38 c-7 -7 -12 -8 -12 -2 0 6 3 14 7 17 3 4 9 5 12 2 2 -3 -1
-11 -7 -17z m433 12 c-3 -5 -13 -10 -21 -10 -8 0 -14 5 -14 10 0 6 9 10 21 10
11 0 17 -4 14 -10z m65 -16 c-17 -19 -50 -37 -50 -27 0 7 48 42 59 43 2 0 -2
-7 -9 -16z m-440 -13 c0 -5 -10 -11 -22 -13 -13 -2 -22 -9 -20 -16 1 -6 -2
-12 -8 -12 -5 0 -10 5 -10 11 0 5 -4 7 -10 4 -5 -3 -10 -3 -10 0 0 6 58 34 73
35 4 0 7 -4 7 -9z m580 -6 c0 -5 -49 -31 -86 -46 -24 -9 -26 -8 -14 6 20 24
100 56 100 40z m60 -28 c-26 -24 -87 -53 -95 -45 -4 4 102 66 115 68 3 0 -6
-10 -20 -23z m-510 -14 c0 -5 -18 -18 -40 -30 -27 -14 -40 -17 -40 -9 0 7 15
20 33 29 37 18 47 20 47 10z m10 -49 c-111 -60 -220 -105 -220 -89 0 12 86 58
114 60 17 2 58 17 91 34 83 42 94 38 15 -5z m0 -38 c0 -2 -7 -7 -16 -10 -8 -3
-12 -2 -9 4 6 10 25 14 25 6z m76 -15 c-4 -6 -13 -8 -21 -4 -11 3 -15 -2 -16
-18 0 -23 -1 -23 -9 -4 -11 26 -12 37 -2 32 4 -3 16 -1 27 3 23 9 30 6 21 -9z
m-86 -71 c0 -7 7 -7 21 0 11 7 23 9 26 7 3 -3 -9 -13 -26 -22 -17 -8 -31 -11
-31 -6 0 7 -9 7 -26 1 -39 -15 -42 -12 -9 10 34 22 45 25 45 10z m70 -45 c-7
-8 -17 -15 -23 -15 -6 0 -2 7 9 15 25 19 30 19 14 0z m-96 -40 c-10 -8 -26
-14 -34 -14 -11 0 -10 3 4 14 11 8 27 15 35 15 11 0 10 -4 -5 -15z m-74 -26
c0 -13 -87 -52 -103 -46 -7 3 13 16 43 30 66 31 60 29 60 16z m17 -62 c-12
-12 -41 -31 -65 -42 -35 -15 -45 -16 -55 -5 -8 9 -9 11 0 6 6 -3 38 10 70 29
68 41 81 44 50 12z m74 -47 c-13 -11 -28 -20 -35 -20 -6 0 3 9 19 19 39 25 46
25 16 1z m70 -20 c3 -20 4 -25 12 -37 8 -12 -67 -63 -92 -63 -17 0 18 34 52
52 26 13 27 16 13 30 -8 9 -12 18 -9 22 10 9 23 7 24 -4z m-67 -15 c-10 -8
-23 -14 -29 -14 -5 0 -1 6 9 14 11 8 24 15 30 15 5 0 1 -7 -10 -15z m-108 -26
c-35 -28 -56 -23 -22 6 17 13 34 21 38 19 5 -3 -2 -14 -16 -25z m39 -8 c-3 -6
-28 -24 -55 -42 -31 -20 -46 -35 -39 -40 8 -4 4 -11 -11 -19 -20 -11 -21 -10
-15 12 9 30 24 48 39 48 7 0 27 11 46 25 36 27 45 30 35 16z m-7 -76 c-40 -27
-48 -30 -48 -17 0 9 57 40 75 41 5 1 -7 -10 -27 -24z m138 -26 c-14 -11 -26
-24 -26 -29 0 -13 41 1 47 16 3 8 9 11 15 8 5 -3 2 -14 -8 -25 -12 -14 -13
-19 -4 -19 20 0 3 -13 -22 -17 -26 -4 -150 -81 -161 -100 -5 -7 -12 -11 -17
-8 -5 3 -23 -1 -41 -10 -17 -9 -33 -14 -37 -11 -11 12 32 46 57 46 54 0 123
62 97 86 -9 9 -21 4 -47 -18 l-34 -30 40 21 40 21 -30 -25 c-18 -15 -38 -24
-50 -21 -11 3 -29 -2 -39 -10 -27 -19 -35 -18 -33 5 0 11 5 17 10 14 11 -7 59
26 53 36 -3 5 8 7 25 5 24 -3 32 1 41 21 6 13 15 22 19 19 10 -6 105 41 115
58 6 9 9 9 12 0 2 -7 -8 -22 -22 -33z m44 -89 c0 -5 -6 -10 -14 -10 -8 0 -23
-3 -33 -6 -10 -3 -7 2 7 10 30 18 40 20 40 6z m-130 -65 c0 -6 -56 -35 -67
-35 -9 0 48 38 60 39 4 1 7 -1 7 -4z m-90 -34 c0 -11 -31 -24 -39 -16 -3 3 1
10 9 15 19 12 30 12 30 1z"/>
<path d="M2501 1839 c-13 -5 -22 -11 -20 -14 8 -7 49 7 49 16 0 5 -1 9 -2 8
-2 0 -14 -5 -27 -10z"/>
<path d="M3747 1943 c-38 -13 -82 -30 -97 -38 -27 -14 -30 -13 -57 14 -33 33
-113 47 -204 36 -105 -12 -124 -24 -121 -75 0 -3 3 -90 7 -195 4 -104 8 -217
10 -250 2 -33 6 -172 10 -310 4 -137 11 -260 16 -272 8 -22 12 -23 156 -23
200 0 196 -1 187 69 -3 31 -8 64 -10 74 -17 94 -23 352 -11 455 10 89 98 211
141 197 6 -2 25 -6 42 -8 17 -3 48 -13 68 -22 68 -32 92 -23 221 82 33 27 66
61 73 75 24 52 -17 104 -128 162 -110 57 -194 65 -303 29z m-257 -25 c0 -6 -3
-8 -6 -5 -4 3 -16 1 -28 -5 -21 -11 -21 -11 -2 10 19 21 36 21 36 0z m-170 -8
c-19 -13 -30 -13 -30 0 0 6 10 10 23 10 18 0 19 -2 7 -10z m240 6 c0 -11 -19
-15 -25 -6 -3 5 1 10 9 10 9 0 16 -2 16 -4z m-146 -41 c-18 -13 -18 -14 -1
-15 39 0 -13 -35 -108 -72 -17 -6 -16 -5 3 8 12 9 22 21 22 27 0 5 11 20 25
33 14 13 25 18 25 11 0 -6 7 -4 17 6 10 9 22 17 27 17 5 0 1 -7 -10 -15z m150
-14 c4 -1 6 -7 3 -13 -6 -18 67 -22 85 -6 16 16 58 21 58 8 0 -9 -62 -30 -90
-30 -9 0 -32 -11 -53 -25 -39 -27 -48 -24 -20 7 16 18 13 18 -37 -3 -30 -12
-75 -28 -100 -35 -40 -12 -43 -12 -26 1 11 8 17 17 14 20 -3 3 -25 -11 -49
-30 -48 -38 -59 -42 -59 -21 0 8 26 29 58 47 31 18 58 36 60 40 2 4 16 3 33
-1 23 -7 29 -5 29 6 0 8 7 17 15 20 8 4 13 10 10 14 -4 6 24 7 69 1z m219 -4
c3 -8 -1 -14 -9 -14 -15 0 -18 9 -7 20 9 9 10 9 16 -6z m247 -2 c0 -6 -56 -35
-67 -35 -4 0 6 9 22 20 29 19 45 25 45 15z m-720 -35 c0 -5 -5 -10 -11 -10 -5
0 -7 5 -4 10 3 6 8 10 11 10 2 0 4 -4 4 -10z m730 6 c0 -8 -192 -97 -197 -92
-3 2 37 25 89 50 90 44 108 51 108 42z m110 -16 c0 -5 -14 -17 -31 -25 -29
-16 -30 -16 -20 4 14 26 51 42 51 21z m-90 -34 c0 -12 -147 -96 -201 -115 -63
-22 -11 15 96 68 108 54 105 53 105 47z m-570 -13 c-1 -28 -36 -45 -64 -30
-18 9 -17 11 15 22 43 16 49 17 49 8z m100 -28 c-13 -14 -27 -22 -31 -19 -5 3
-22 -2 -39 -11 -17 -9 -37 -14 -43 -12 -7 2 -2 9 11 16 12 6 22 19 22 28 0 12
3 13 14 4 10 -9 15 -8 19 2 3 8 20 14 37 15 l32 1 -22 -24z m175 -25 c-3 -5
-13 -10 -21 -10 -8 0 -12 5 -9 10 3 6 13 10 21 10 8 0 12 -4 9 -10z m68 -18
c-32 -24 -53 -33 -53 -23 0 5 7 12 16 15 8 3 13 9 11 13 -3 5 6 8 19 8 22 0
23 -1 7 -13z m-433 -12 c0 -5 -11 -10 -25 -10 -16 0 -25 -6 -25 -16 0 -9 -5
-14 -11 -12 -18 6 -13 22 12 35 29 15 49 16 49 3z m565 -13 c-35 -22 -95 -47
-95 -39 0 12 72 52 95 52 19 0 19 0 0 -13z m85 -4 c0 -9 -75 -57 -105 -67 -31
-11 -5 11 52 45 55 32 53 31 53 22z m-525 -33 c-9 -15 -85 -50 -85 -39 0 11
60 49 78 49 7 0 10 -5 7 -10z m15 -41 c-110 -61 -230 -111 -230 -94 0 11 107
65 130 65 14 1 50 14 80 30 73 39 90 38 20 -1z m-10 -43 c0 -3 -4 -8 -10 -11
-5 -3 -10 -1 -10 4 0 6 5 11 10 11 6 0 10 -2 10 -4z m80 -11 c-7 -9 -15 -13
-18 -10 -3 3 -11 -4 -18 -16 -11 -22 -11 -22 -16 4 -3 15 -1 24 3 21 5 -3 17
0 26 5 26 15 37 13 23 -4z m-85 -75 c5 -8 11 -7 21 1 8 6 17 9 20 6 3 -3 -8
-13 -25 -22 -20 -10 -31 -12 -31 -4 0 6 -6 9 -12 6 -42 -17 -49 -17 -23 1 35
24 42 26 50 12z m65 -50 c0 -5 -8 -10 -17 -10 -15 0 -16 2 -3 10 19 12 20 12
20 0z m-92 -36 c-9 -9 -24 -14 -34 -12 -16 3 -14 6 11 19 35 18 45 15 23 -7z
m-73 -24 c-9 -15 -81 -50 -102 -50 -27 0 -3 18 53 40 59 23 57 22 49 10z m28
-52 c-13 -6 -23 -15 -23 -19 0 -9 -85 -49 -103 -49 -13 0 11 18 73 53 25 15
52 26 60 26 9 0 6 -5 -7 -11z m61 -63 c-10 -8 -23 -14 -29 -14 -5 0 -1 6 9 14
11 8 24 15 30 15 5 0 1 -7 -10 -15z m76 -19 c0 -8 -4 -18 -10 -21 -5 -3 -10
-4 -10 -1 0 2 -3 11 -6 20 -4 11 -1 16 10 16 9 0 16 -6 16 -14z m-76 -11 c-10
-8 -23 -14 -29 -14 -5 0 -1 6 9 14 11 8 24 15 30 15 5 0 1 -7 -10 -15z m-103
-27 c-25 -19 -41 -23 -41 -9 0 13 44 40 54 33 5 -3 -1 -13 -13 -24z m167 -22
c-39 -31 -85 -47 -85 -30 0 7 4 11 9 8 4 -3 8 -1 8 4 0 11 83 52 90 45 3 -3
-7 -15 -22 -27z m-128 16 c0 -4 -23 -22 -51 -41 -32 -21 -47 -36 -40 -40 8 -5
3 -11 -12 -18 -22 -10 -24 -9 -19 13 3 18 19 32 53 49 26 14 50 29 54 35 7 12
15 13 15 2z m-10 -77 c-32 -24 -50 -31 -50 -20 0 7 63 45 74 45 6 0 -5 -11
-24 -25z m140 -26 l-35 -28 27 -1 c15 0 31 8 37 18 7 12 10 13 11 3 0 -8 -8
-20 -17 -27 -11 -8 -13 -13 -5 -14 6 0 12 -5 12 -10 0 -6 -6 -10 -12 -8 -35 6
-162 -70 -192 -116 -18 -29 -36 -34 -36 -11 0 12 -4 14 -19 5 -29 -15 -37 6
-9 23 13 8 39 18 59 21 20 4 48 19 64 36 29 31 29 55 0 26 -24 -24 -55 -38
-69 -33 -8 3 -27 -3 -45 -14 -31 -19 -38 -16 -23 9 11 16 77 52 96 52 7 0 21
11 30 25 9 14 21 23 26 20 5 -3 35 10 67 29 67 40 84 37 33 -5z m43 -91 c3 -9
-7 -13 -30 -14 -34 -1 -34 0 -11 12 29 17 35 17 41 2z m-153 -78 c-24 -19 -40
-25 -40 -15 0 5 51 34 60 34 3 0 -6 -8 -20 -19z"/>
<path d="M3514 1835 c-20 -15 -11 -18 20 -6 11 4 15 10 9 14 -5 3 -19 0 -29
-8z"/>
<path d="M3430 989 l-35 -31 31 15 c17 9 36 23 43 31 22 27 -2 17 -39 -15z"/>
</g>
</svg>
